<svg xmlns="http://www.w3.org/2000/svg" xmlns:xlink="http://www.w3.org/1999/xlink" width="500" zoomAndPan="magnify" viewBox="0 0 375 374.999991" height="500" preserveAspectRatio="xMidYMid meet" version="1.0"><defs><g/><clipPath id="1112162f32"><path d="M 129 86 L 245 86 L 245 204 L 129 204 Z M 129 86 " clip-rule="nonzero"/></clipPath><clipPath id="5660a3ad5b"><path d="M 158.988281 68.054688 L 263.667969 116.871094 L 215.800781 219.507812 L 111.125 170.695312 Z M 158.988281 68.054688 " clip-rule="nonzero"/></clipPath><clipPath id="05ca0a17f1"><path d="M 158.988281 68.054688 L 263.667969 116.871094 L 215.800781 219.507812 L 111.125 170.695312 Z M 158.988281 68.054688 " clip-rule="nonzero"/></clipPath><clipPath id="cf2c9cecad"><path d="M 159.066406 68.09375 L 263.699219 116.886719 L 215.828125 219.546875 L 111.191406 170.753906 Z M 159.066406 68.09375 " clip-rule="nonzero"/></clipPath><clipPath id="57bd712d37"><path d="M 159.066406 68.09375 L 263.578125 116.832031 L 215.710938 219.476562 L 111.199219 170.738281 Z M 159.066406 68.09375 " clip-rule="nonzero"/></clipPath></defs><g fill="#ffffff" fill-opacity="1"><g transform="translate(94.45082, 240.556191)"><g><path d="M 16.734375 -10.46875 C 16.566406 -9.0625 16.410156 -7.539062 16.265625 -5.90625 C 16.117188 -4.28125 15.816406 -0.363281 15.359375 5.84375 C 13.597656 5.632812 11.828125 5.351562 10.046875 5 C 8.265625 4.65625 6.703125 4.289062 5.359375 3.90625 C 5.347656 -2.394531 5.503906 -8.445312 5.828125 -14.25 C 6.148438 -20.0625 6.628906 -25.6875 7.265625 -31.125 C 7.410156 -32.332031 7.59375 -33.613281 7.8125 -34.96875 C 8.039062 -36.332031 8.335938 -37.882812 8.703125 -39.625 C 10.847656 -40.40625 13.410156 -40.9375 16.390625 -41.21875 C 19.378906 -41.5 22.28125 -41.476562 25.09375 -41.15625 C 29.863281 -40.59375 33.429688 -39.148438 35.796875 -36.828125 C 38.171875 -34.503906 39.144531 -31.550781 38.71875 -27.96875 C 38.207031 -23.582031 35.988281 -19.816406 32.0625 -16.671875 C 28.144531 -13.523438 23.035156 -11.457031 16.734375 -10.46875 Z M 26.390625 -27.28125 C 26.648438 -29.539062 26.410156 -31.304688 25.671875 -32.578125 C 24.929688 -33.859375 23.679688 -34.601562 21.921875 -34.8125 C 21.566406 -34.851562 21.300781 -34.882812 21.125 -34.90625 C 20.957031 -34.925781 20.789062 -34.925781 20.625 -34.90625 C 20.09375 -32.300781 19.578125 -29.601562 19.078125 -26.8125 C 18.585938 -24.019531 18.125 -21.082031 17.6875 -18 C 20.28125 -18.375 22.296875 -19.328125 23.734375 -20.859375 C 25.179688 -22.398438 26.066406 -24.539062 26.390625 -27.28125 Z M 26.390625 -27.28125 "/></g></g></g><g fill="#ffffff" fill-opacity="1"><g transform="translate(130.407708, 244.856)"><g><path d="M 39.421875 5.5625 C 37.992188 6.375 36.304688 7.03125 34.359375 7.53125 C 32.421875 8.03125 30.125 8.359375 27.46875 8.515625 C 27.363281 6.148438 27.179688 3.664062 26.921875 1.0625 C 26.660156 -1.539062 26.296875 -4.1875 25.828125 -6.875 C 23.316406 -6.988281 21.050781 -7.046875 19.03125 -7.046875 C 17.019531 -7.046875 15.125 -6.976562 13.34375 -6.84375 C 12.613281 -5.101562 11.863281 -3.453125 11.09375 -1.890625 C 10.332031 -0.328125 9.582031 1.101562 8.84375 2.40625 C 6.9375 1.988281 5.15625 1.265625 3.5 0.234375 C 1.84375 -0.796875 0.5625 -1.96875 -0.34375 -3.28125 C 3.019531 -8.71875 5.988281 -14.226562 8.5625 -19.8125 C 11.132812 -25.394531 13.882812 -32.453125 16.8125 -40.984375 C 18.738281 -40.878906 20.472656 -40.691406 22.015625 -40.421875 C 23.554688 -40.148438 25.257812 -39.734375 27.125 -39.171875 C 30.21875 -33.535156 32.804688 -26.910156 34.890625 -19.296875 C 36.972656 -11.691406 38.484375 -3.40625 39.421875 5.5625 Z M 20.921875 -27.21875 C 20.296875 -25.320312 19.601562 -23.3125 18.84375 -21.1875 C 18.09375 -19.070312 17.296875 -16.910156 16.453125 -14.703125 C 17.804688 -14.816406 19.125 -14.894531 20.40625 -14.9375 C 21.695312 -14.988281 22.988281 -15 24.28125 -14.96875 C 23.75 -17.207031 23.207031 -19.34375 22.65625 -21.375 C 22.101562 -23.414062 21.523438 -25.363281 20.921875 -27.21875 Z M 20.921875 -27.21875 "/></g></g></g><g fill="#ffffff" fill-opacity="1"><g transform="translate(168.870078, 247.118598)"><g><path d="M 39.609375 -0.890625 C 38.347656 0.972656 36.894531 2.539062 35.25 3.8125 C 33.601562 5.09375 31.640625 6.207031 29.359375 7.15625 C 27.378906 3.1875 25.34375 -0.300781 23.25 -3.3125 C 21.15625 -6.320312 18.675781 -9.316406 15.8125 -12.296875 C 15.726562 -12.253906 15.617188 -12.179688 15.484375 -12.078125 C 15.347656 -11.984375 15.238281 -11.914062 15.15625 -11.875 C 15.195312 -9.4375 15.316406 -6.945312 15.515625 -4.40625 C 15.722656 -1.875 16.003906 0.691406 16.359375 3.296875 C 15.328125 3.609375 13.757812 3.878906 11.65625 4.109375 C 9.550781 4.347656 7.65625 4.46875 5.96875 4.46875 C 5.0625 -0.125 4.375 -5.007812 3.90625 -10.1875 C 3.445312 -15.363281 3.21875 -20.664062 3.21875 -26.09375 C 3.207031 -28.21875 3.238281 -30.398438 3.3125 -32.640625 C 3.394531 -34.890625 3.507812 -37.191406 3.65625 -39.546875 C 4.601562 -40.179688 5.785156 -40.675781 7.203125 -41.03125 C 8.617188 -41.394531 10.070312 -41.578125 11.5625 -41.578125 C 12.664062 -41.578125 13.671875 -41.515625 14.578125 -41.390625 C 15.484375 -41.273438 16.390625 -41.101562 17.296875 -40.875 C 16.753906 -37.925781 16.304688 -34.882812 15.953125 -31.75 C 15.609375 -28.613281 15.359375 -25.4375 15.203125 -22.21875 C 17.328125 -24.582031 19.28125 -27.269531 21.0625 -30.28125 C 22.851562 -33.289062 24.785156 -37.175781 26.859375 -41.9375 C 28.585938 -41.394531 30.226562 -40.582031 31.78125 -39.5 C 33.34375 -38.425781 34.875 -37.003906 36.375 -35.234375 C 34.488281 -31.847656 32.5625 -28.835938 30.59375 -26.203125 C 28.632812 -23.566406 26.515625 -21.179688 24.234375 -19.046875 C 27.191406 -16.535156 29.859375 -13.863281 32.234375 -11.03125 C 34.617188 -8.195312 37.078125 -4.816406 39.609375 -0.890625 Z M 39.609375 -0.890625 "/></g></g></g><g fill="#ffffff" fill-opacity="1"><g transform="translate(206.21949, 247.118733)"><g><path d="M 39.796875 0.828125 C 38.472656 1.804688 36.875 2.65625 35 3.375 C 33.132812 4.101562 30.898438 4.707031 28.296875 5.1875 C 27.910156 2.84375 27.429688 0.398438 26.859375 -2.140625 C 26.296875 -4.691406 25.617188 -7.28125 24.828125 -9.90625 C 22.304688 -9.71875 20.046875 -9.503906 18.046875 -9.265625 C 16.054688 -9.023438 14.179688 -8.734375 12.421875 -8.390625 C 11.921875 -6.578125 11.382812 -4.847656 10.8125 -3.203125 C 10.238281 -1.554688 9.65625 -0.0390625 9.0625 1.34375 C 7.125 1.144531 5.269531 0.632812 3.5 -0.1875 C 1.738281 -1.007812 0.328125 -2.019531 -0.734375 -3.21875 C 1.953125 -9.019531 4.238281 -14.84375 6.125 -20.6875 C 8.019531 -26.539062 9.914062 -33.878906 11.8125 -42.703125 C 13.738281 -42.828125 15.476562 -42.847656 17.03125 -42.765625 C 18.59375 -42.679688 20.335938 -42.460938 22.265625 -42.109375 C 26.003906 -36.898438 29.359375 -30.640625 32.328125 -23.328125 C 35.304688 -16.023438 37.796875 -7.972656 39.796875 0.828125 Z M 17.53125 -29.515625 C 17.132812 -27.554688 16.6875 -25.476562 16.1875 -23.28125 C 15.695312 -21.09375 15.164062 -18.851562 14.59375 -16.5625 C 15.925781 -16.84375 17.222656 -17.082031 18.484375 -17.28125 C 19.742188 -17.476562 21.023438 -17.632812 22.328125 -17.75 C 21.523438 -19.90625 20.726562 -21.960938 19.9375 -23.921875 C 19.15625 -25.890625 18.351562 -27.753906 17.53125 -29.515625 Z M 17.53125 -29.515625 "/></g></g></g><g fill="#ffffff" fill-opacity="1"><g transform="translate(244.634379, 244.744072)"><g><path d="M 26.390625 -45.46875 C 27.722656 -41.507812 28.71875 -38.21875 29.375 -35.59375 C 30.03125 -32.96875 30.5 -30.488281 30.78125 -28.15625 C 31.90625 -18.6875 31.265625 -11.332031 28.859375 -6.09375 C 26.453125 -0.863281 22.316406 2.097656 16.453125 2.796875 C 11.921875 3.335938 8.269531 2.007812 5.5 -1.1875 C 2.738281 -4.382812 0.972656 -9.25 0.203125 -15.78125 C -0.273438 -19.800781 -0.421875 -24 -0.234375 -28.375 C -0.046875 -32.757812 0.34375 -35.664062 0.9375 -37.09375 C 1.65625 -37.375 2.546875 -37.644531 3.609375 -37.90625 C 4.671875 -38.164062 5.707031 -38.359375 6.71875 -38.484375 C 7.925781 -38.628906 8.976562 -38.675781 9.875 -38.625 C 10.769531 -38.570312 11.46875 -38.441406 11.96875 -38.234375 C 11.800781 -35.003906 11.765625 -31.796875 11.859375 -28.609375 C 11.960938 -25.429688 12.179688 -22.4375 12.515625 -19.625 C 13.066406 -14.9375 13.769531 -11.304688 14.625 -8.734375 C 15.476562 -6.160156 16.390625 -4.929688 17.359375 -5.046875 C 18.566406 -5.191406 19.300781 -6.8125 19.5625 -9.90625 C 19.820312 -13.007812 19.617188 -17.394531 18.953125 -23.0625 C 18.617188 -25.875 18.066406 -28.835938 17.296875 -31.953125 C 16.523438 -35.078125 15.519531 -38.347656 14.28125 -41.765625 C 15.71875 -42.617188 17.601562 -43.390625 19.9375 -44.078125 C 22.28125 -44.773438 24.429688 -45.238281 26.390625 -45.46875 Z M 26.390625 -45.46875 "/></g></g></g><g fill="#ffffff" fill-opacity="1"><g transform="translate(85.054686, 265.868604)"><g><path d="M 8.375 -11.28125 C 9.226562 -11.113281 9.957031 -10.84375 10.5625 -10.46875 C 11.164062 -10.101562 11.425781 -9.71875 11.34375 -9.3125 C 11.257812 -8.90625 11.003906 -8.429688 10.578125 -7.890625 C 10.148438 -7.347656 9.828125 -7.097656 9.609375 -7.140625 C 9.546875 -7.148438 9.484375 -7.191406 9.421875 -7.265625 C 9.367188 -7.347656 9.210938 -7.453125 8.953125 -7.578125 C 8.691406 -7.710938 8.460938 -7.800781 8.265625 -7.84375 C 7.578125 -7.976562 6.976562 -7.84375 6.46875 -7.4375 C 5.957031 -7.039062 5.601562 -6.347656 5.40625 -5.359375 C 5.21875 -4.367188 5.285156 -3.59375 5.609375 -3.03125 C 5.941406 -2.46875 6.4375 -2.117188 7.09375 -1.984375 C 7.351562 -1.929688 7.660156 -1.910156 8.015625 -1.921875 C 8.367188 -1.929688 8.628906 -1.992188 8.796875 -2.109375 C 8.828125 -2.117188 8.878906 -2.113281 8.953125 -2.09375 C 9.023438 -2.082031 9.128906 -1.925781 9.265625 -1.625 C 9.410156 -1.332031 9.519531 -0.957031 9.59375 -0.5 C 9.664062 -0.0390625 9.679688 0.304688 9.640625 0.546875 C 9.546875 1.003906 9.125 1.296875 8.375 1.421875 C 7.625 1.546875 6.769531 1.515625 5.8125 1.328125 C 4.257812 1.023438 3.085938 0.234375 2.296875 -1.046875 C 1.515625 -2.335938 1.320312 -3.976562 1.71875 -5.96875 C 2.113281 -7.957031 2.9375 -9.414062 4.1875 -10.34375 C 5.445312 -11.269531 6.84375 -11.582031 8.375 -11.28125 Z M 8.375 -11.28125 "/></g></g></g><g fill="#ffffff" fill-opacity="1"><g transform="translate(95.50438, 267.946435)"><g><path d="M 6.09375 1.234375 C 4.4375 0.953125 3.179688 0.179688 2.328125 -1.078125 C 1.472656 -2.347656 1.222656 -4.019531 1.578125 -6.09375 C 1.941406 -8.164062 2.742188 -9.644531 3.984375 -10.53125 C 5.234375 -11.425781 6.691406 -11.726562 8.359375 -11.4375 C 10.023438 -11.144531 11.28125 -10.382812 12.125 -9.15625 C 12.96875 -7.925781 13.203125 -6.242188 12.828125 -4.109375 C 12.460938 -1.972656 11.664062 -0.476562 10.4375 0.375 C 9.207031 1.238281 7.757812 1.523438 6.09375 1.234375 Z M 7.734375 -8.046875 C 7.171875 -8.148438 6.648438 -7.976562 6.171875 -7.53125 C 5.703125 -7.082031 5.382812 -6.390625 5.21875 -5.453125 C 5.0625 -4.515625 5.117188 -3.765625 5.390625 -3.203125 C 5.671875 -2.640625 6.109375 -2.304688 6.703125 -2.203125 C 7.296875 -2.097656 7.820312 -2.265625 8.28125 -2.703125 C 8.738281 -3.140625 9.050781 -3.828125 9.21875 -4.765625 C 9.382812 -5.710938 9.316406 -6.472656 9.015625 -7.046875 C 8.722656 -7.617188 8.296875 -7.953125 7.734375 -8.046875 Z M 7.734375 -8.046875 "/></g></g></g><g fill="#ffffff" fill-opacity="1"><g transform="translate(108.397851, 270.179371)"><g><path d="M 6.125 1.078125 C 4.457031 0.828125 3.179688 0.0820312 2.296875 -1.15625 C 1.421875 -2.394531 1.132812 -4.054688 1.4375 -6.140625 C 1.75 -8.222656 2.507812 -9.722656 3.71875 -10.640625 C 4.9375 -11.554688 6.378906 -11.890625 8.046875 -11.640625 C 9.722656 -11.398438 11 -10.675781 11.875 -9.46875 C 12.75 -8.269531 13.03125 -6.597656 12.71875 -4.453125 C 12.40625 -2.304688 11.644531 -0.785156 10.4375 0.109375 C 9.226562 1.003906 7.789062 1.328125 6.125 1.078125 Z M 7.5 -8.265625 C 6.9375 -8.347656 6.425781 -8.15625 5.96875 -7.6875 C 5.519531 -7.226562 5.222656 -6.53125 5.078125 -5.59375 C 4.941406 -4.65625 5.019531 -3.90625 5.3125 -3.34375 C 5.601562 -2.78125 6.046875 -2.453125 6.640625 -2.359375 C 7.242188 -2.273438 7.765625 -2.460938 8.203125 -2.921875 C 8.648438 -3.378906 8.941406 -4.078125 9.078125 -5.015625 C 9.222656 -5.960938 9.140625 -6.71875 8.828125 -7.28125 C 8.515625 -7.851562 8.070312 -8.179688 7.5 -8.265625 Z M 7.5 -8.265625 "/></g></g></g><g fill="#ffffff" fill-opacity="1"><g transform="translate(121.339184, 272.068062)"><g><path d="M 4.484375 0.296875 C 4.460938 0.472656 3.894531 0.492188 2.78125 0.359375 L 1.78125 0.1875 C 1.195312 0.0625 0.910156 -0.0546875 0.921875 -0.171875 L 2.375 -12.109375 C 2.40625 -12.304688 3.015625 -12.332031 4.203125 -12.1875 C 5.390625 -12.039062 5.96875 -11.867188 5.9375 -11.671875 L 5.390625 -7.109375 L 8.109375 -11.40625 C 8.210938 -11.5625 8.691406 -11.585938 9.546875 -11.484375 C 11.128906 -11.296875 11.945312 -11.0625 12 -10.78125 C 12 -10.75 11.992188 -10.722656 11.984375 -10.703125 L 8.1875 -5.5 L 11.1875 -0.09375 C 11.1875 -0.0703125 11.0625 0.015625 10.8125 0.171875 C 10.195312 0.566406 9.507812 0.859375 8.75 1.046875 C 8.519531 1.109375 8.289062 1.125 8.0625 1.09375 L 7.625 1.015625 C 7.28125 0.859375 7.019531 0.578125 6.84375 0.171875 L 5.28125 -3.953125 L 5 -3.984375 Z M 4.484375 0.296875 "/></g></g></g><g fill="#ffffff" fill-opacity="1"><g transform="translate(132.937842, 273.453128)"><g><path d="M 2.421875 -2.421875 C 2.503906 -2.597656 3.015625 -2.632812 3.953125 -2.53125 C 4.890625 -2.4375 5.347656 -2.265625 5.328125 -2.015625 L 5.125 -0.53125 L 3.859375 1.8125 C 3.660156 2.132812 3.160156 2.253906 2.359375 2.171875 C 1.554688 2.085938 1.066406 1.898438 0.890625 1.609375 C 0.835938 1.554688 0.816406 1.5 0.828125 1.4375 C 0.835938 1.382812 0.847656 1.34375 0.859375 1.3125 L 2.171875 -0.796875 Z M 2.421875 -2.421875 "/></g></g></g><g fill="#ffffff" fill-opacity="1"><g transform="translate(138.904416, 274.067198)"><g/></g></g><g fill="#ffffff" fill-opacity="1"><g transform="translate(142.810132, 274.455817)"><g><path d="M 7.015625 -12.171875 C 7.890625 -12.109375 8.644531 -11.929688 9.28125 -11.640625 C 9.914062 -11.347656 10.21875 -10.992188 10.1875 -10.578125 C 10.15625 -10.160156 9.957031 -9.65625 9.59375 -9.0625 C 9.226562 -8.46875 8.9375 -8.179688 8.71875 -8.203125 C 8.65625 -8.210938 8.585938 -8.25 8.515625 -8.3125 C 8.441406 -8.382812 8.269531 -8.46875 8 -8.5625 C 7.726562 -8.664062 7.492188 -8.726562 7.296875 -8.75 C 6.597656 -8.800781 6.019531 -8.597656 5.5625 -8.140625 C 5.101562 -7.679688 4.832031 -6.945312 4.75 -5.9375 C 4.664062 -4.9375 4.820312 -4.175781 5.21875 -3.65625 C 5.625 -3.132812 6.160156 -2.847656 6.828125 -2.796875 C 7.097656 -2.765625 7.40625 -2.773438 7.75 -2.828125 C 8.09375 -2.878906 8.335938 -2.972656 8.484375 -3.109375 C 8.515625 -3.128906 8.566406 -3.132812 8.640625 -3.125 C 8.710938 -3.125 8.832031 -2.984375 9 -2.703125 C 9.175781 -2.421875 9.332031 -2.054688 9.46875 -1.609375 C 9.601562 -1.160156 9.660156 -0.816406 9.640625 -0.578125 C 9.597656 -0.109375 9.207031 0.226562 8.46875 0.4375 C 7.738281 0.65625 6.890625 0.722656 5.921875 0.640625 C 4.335938 0.515625 3.082031 -0.132812 2.15625 -1.3125 C 1.238281 -2.5 0.859375 -4.101562 1.015625 -6.125 C 1.179688 -8.144531 1.832031 -9.6875 2.96875 -10.75 C 4.101562 -11.820312 5.453125 -12.296875 7.015625 -12.171875 Z M 7.015625 -12.171875 "/></g></g></g><g fill="#ffffff" fill-opacity="1"><g transform="translate(153.421333, 275.298013)"><g><path d="M 4.328125 0 C 4.316406 0.1875 3.742188 0.25 2.609375 0.1875 C 1.460938 0.113281 0.894531 -0.0078125 0.90625 -0.1875 L 1.578125 -11.859375 C 1.597656 -12.273438 1.832031 -12.46875 2.28125 -12.4375 L 5.6875 -12.25 C 8.832031 -12.0625 10.335938 -10.742188 10.203125 -8.296875 C 10.160156 -7.554688 9.972656 -6.890625 9.640625 -6.296875 C 9.316406 -5.710938 8.882812 -5.253906 8.34375 -4.921875 L 10.390625 -1.0625 C 10.273438 -0.769531 9.941406 -0.453125 9.390625 -0.109375 C 8.648438 0.359375 8.046875 0.578125 7.578125 0.546875 C 7.117188 0.523438 6.78125 0.335938 6.5625 -0.015625 L 5.109375 -4.03125 L 4.5625 -4.0625 Z M 4.859375 -9.109375 L 4.703125 -6.421875 L 4.796875 -6.421875 C 5.921875 -6.347656 6.507812 -6.78125 6.5625 -7.71875 C 6.582031 -8.15625 6.488281 -8.484375 6.28125 -8.703125 C 6.082031 -8.929688 5.734375 -9.0625 5.234375 -9.09375 Z M 4.859375 -9.109375 "/></g></g></g><g fill="#ffffff" fill-opacity="1"><g transform="translate(164.561418, 275.928971)"><g><path d="M 7 -7.3125 C 7.226562 -7.300781 7.328125 -6.878906 7.296875 -6.046875 C 7.285156 -5.796875 7.25 -5.5 7.1875 -5.15625 C 7.125 -4.8125 7.019531 -4.644531 6.875 -4.65625 L 4.59375 -4.734375 L 4.515625 -2.953125 L 7.8125 -2.84375 C 8.019531 -2.832031 8.15625 -2.5625 8.21875 -2.03125 C 8.238281 -1.789062 8.242188 -1.539062 8.234375 -1.28125 C 8.222656 -1.03125 8.171875 -0.703125 8.078125 -0.296875 C 7.992188 0.0976562 7.867188 0.289062 7.703125 0.28125 L 1.578125 0.0625 C 1.117188 0.0390625 0.894531 -0.15625 0.90625 -0.53125 L 1.34375 -12.03125 C 1.351562 -12.34375 1.5 -12.492188 1.78125 -12.484375 L 8.1875 -12.25 C 8.4375 -12.238281 8.539062 -11.707031 8.5 -10.65625 C 8.457031 -9.601562 8.3125 -9.082031 8.0625 -9.09375 L 4.75 -9.203125 L 4.6875 -7.390625 Z M 7 -7.3125 "/></g></g></g><g fill="#ffffff" fill-opacity="1"><g transform="translate(173.980497, 276.291096)"><g><path d="M 9.3125 0.171875 C 8.28125 0.160156 7.722656 -0.0078125 7.640625 -0.34375 L 7.09375 -2.671875 L 4.234375 -2.71875 L 3.6875 -0.5 C 3.601562 -0.125 3.023438 0.0507812 1.953125 0.03125 C 1.378906 0.0195312 0.953125 -0.0195312 0.671875 -0.09375 C 0.398438 -0.164062 0.265625 -0.21875 0.265625 -0.25 L 3.640625 -12.34375 C 3.640625 -12.4375 4.457031 -12.46875 6.09375 -12.4375 C 7.738281 -12.414062 8.5625 -12.359375 8.5625 -12.265625 L 11.453125 -0.046875 C 11.453125 0.0351562 11.175781 0.09375 10.625 0.125 C 10.070312 0.164062 9.632812 0.179688 9.3125 0.171875 Z M 4.71875 -4.96875 L 6.609375 -4.9375 L 5.859375 -8.671875 L 5.75 -8.671875 Z M 4.71875 -4.96875 "/></g></g></g><g fill="#ffffff" fill-opacity="1"><g transform="translate(186.308518, 276.464878)"><g><path d="M 6.296875 -0.3125 C 6.296875 -0.0703125 5.703125 0.046875 4.515625 0.046875 C 3.328125 0.0546875 2.734375 -0.0546875 2.734375 -0.296875 L 2.671875 -9.296875 L 0.53125 -9.28125 C 0.320312 -9.28125 0.175781 -9.554688 0.09375 -10.109375 C 0.0625 -10.367188 0.046875 -10.632812 0.046875 -10.90625 C 0.046875 -11.1875 0.0625 -11.457031 0.09375 -11.71875 C 0.164062 -12.269531 0.304688 -12.546875 0.515625 -12.546875 L 8.3125 -12.59375 C 8.507812 -12.59375 8.65625 -12.316406 8.75 -11.765625 C 8.789062 -11.503906 8.8125 -11.234375 8.8125 -10.953125 C 8.8125 -10.679688 8.789062 -10.414062 8.75 -10.15625 C 8.664062 -9.601562 8.523438 -9.328125 8.328125 -9.328125 L 6.234375 -9.3125 Z M 6.296875 -0.3125 "/></g></g></g><g fill="#ffffff" fill-opacity="1"><g transform="translate(195.881574, 276.401685)"><g><path d="M 6.53125 -7.734375 C 6.757812 -7.734375 6.882812 -7.316406 6.90625 -6.484375 C 6.914062 -6.234375 6.894531 -5.9375 6.84375 -5.59375 C 6.800781 -5.25 6.707031 -5.078125 6.5625 -5.078125 L 4.28125 -5.015625 L 4.328125 -3.234375 L 7.625 -3.3125 C 7.832031 -3.320312 7.976562 -3.0625 8.0625 -2.53125 C 8.101562 -2.300781 8.125 -2.054688 8.125 -1.796875 C 8.132812 -1.546875 8.109375 -1.21875 8.046875 -0.8125 C 7.984375 -0.40625 7.867188 -0.195312 7.703125 -0.1875 L 1.578125 -0.046875 C 1.117188 -0.0234375 0.882812 -0.203125 0.875 -0.578125 L 0.59375 -12.09375 C 0.582031 -12.40625 0.71875 -12.566406 1 -12.578125 L 7.40625 -12.734375 C 7.65625 -12.742188 7.789062 -12.21875 7.8125 -11.15625 C 7.84375 -10.101562 7.734375 -9.570312 7.484375 -9.5625 L 4.171875 -9.484375 L 4.21875 -7.671875 Z M 6.53125 -7.734375 "/></g></g></g><g fill="#ffffff" fill-opacity="1"><g transform="translate(205.272328, 276.151503)"><g><path d="M 2.046875 -2.75 C 2.109375 -2.9375 2.609375 -3.046875 3.546875 -3.078125 C 4.492188 -3.117188 4.972656 -3.015625 4.984375 -2.765625 L 5 -1.25 L 4.078125 1.234375 C 3.929688 1.585938 3.453125 1.78125 2.640625 1.8125 C 1.835938 1.851562 1.328125 1.738281 1.109375 1.46875 C 1.054688 1.425781 1.023438 1.375 1.015625 1.3125 C 1.015625 1.257812 1.019531 1.207031 1.03125 1.15625 L 2.03125 -1.09375 Z M 2.046875 -2.75 "/></g></g></g><g fill="#ffffff" fill-opacity="1"><g transform="translate(211.265297, 275.903061)"><g/></g></g><g fill="#ffffff" fill-opacity="1"><g transform="translate(215.183483, 275.72449)"><g><path d="M 1.078125 -4.453125 C 1.316406 -4.285156 1.722656 -4.066406 2.296875 -3.796875 C 2.878906 -3.523438 3.421875 -3.40625 3.921875 -3.4375 C 4.421875 -3.46875 4.660156 -3.679688 4.640625 -4.078125 C 4.628906 -4.242188 4.546875 -4.390625 4.390625 -4.515625 C 4.242188 -4.640625 3.972656 -4.78125 3.578125 -4.9375 C 3.191406 -5.101562 2.894531 -5.226562 2.6875 -5.3125 C 2.488281 -5.394531 2.226562 -5.539062 1.90625 -5.75 C 1.582031 -5.96875 1.328125 -6.195312 1.140625 -6.4375 C 0.617188 -7.09375 0.320312 -7.941406 0.25 -8.984375 C 0.1875 -10.035156 0.519531 -10.945312 1.25 -11.71875 C 1.988281 -12.488281 2.988281 -12.914062 4.25 -13 C 5.101562 -13.050781 5.898438 -13.007812 6.640625 -12.875 C 7.378906 -12.738281 7.769531 -12.519531 7.8125 -12.21875 C 7.8125 -12.1875 7.816406 -12.148438 7.828125 -12.109375 C 7.847656 -11.703125 7.75 -11.171875 7.53125 -10.515625 C 7.3125 -9.859375 7.148438 -9.488281 7.046875 -9.40625 C 6.253906 -9.75 5.554688 -9.898438 4.953125 -9.859375 C 4.347656 -9.828125 4.0625 -9.597656 4.09375 -9.171875 C 4.101562 -8.910156 4.34375 -8.691406 4.8125 -8.515625 C 4.90625 -8.472656 5.039062 -8.414062 5.21875 -8.34375 C 5.40625 -8.28125 5.617188 -8.195312 5.859375 -8.09375 C 6.097656 -7.988281 6.359375 -7.859375 6.640625 -7.703125 C 6.921875 -7.546875 7.226562 -7.335938 7.5625 -7.078125 C 8.226562 -6.523438 8.59375 -5.757812 8.65625 -4.78125 C 8.738281 -3.507812 8.453125 -2.441406 7.796875 -1.578125 C 7.148438 -0.722656 6.09375 -0.238281 4.625 -0.125 C 3.914062 -0.0703125 3.265625 -0.0820312 2.671875 -0.15625 C 2.085938 -0.238281 1.566406 -0.441406 1.109375 -0.765625 C 0.660156 -1.085938 0.421875 -1.492188 0.390625 -1.984375 C 0.359375 -2.472656 0.414062 -2.960938 0.5625 -3.453125 C 0.71875 -3.941406 0.890625 -4.273438 1.078125 -4.453125 Z M 1.078125 -4.453125 "/></g></g></g><g fill="#ffffff" fill-opacity="1"><g transform="translate(225.27357, 275.08507)"><g><path d="M 9.28125 -0.765625 C 8.25 -0.679688 7.675781 -0.800781 7.5625 -1.125 L 6.78125 -3.375 L 3.9375 -3.125 L 3.609375 -0.875 C 3.566406 -0.5 3.015625 -0.265625 1.953125 -0.171875 C 1.378906 -0.117188 0.953125 -0.113281 0.671875 -0.15625 C 0.390625 -0.195312 0.25 -0.234375 0.25 -0.265625 L 2.359375 -12.640625 C 2.347656 -12.734375 3.160156 -12.847656 4.796875 -12.984375 C 6.429688 -13.128906 7.253906 -13.15625 7.265625 -13.0625 L 11.390625 -1.21875 C 11.390625 -1.132812 11.117188 -1.046875 10.578125 -0.953125 C 10.035156 -0.859375 9.601562 -0.796875 9.28125 -0.765625 Z M 4.1875 -5.4375 L 6.0625 -5.59375 L 4.953125 -9.21875 L 4.84375 -9.21875 Z M 4.1875 -5.4375 "/></g></g></g><g fill="#ffffff" fill-opacity="1"><g transform="translate(237.57102, 274.015779)"><g><path d="M -1.15625 -12.25 C -1.164062 -12.3125 -0.914062 -12.394531 -0.40625 -12.5 C 0.09375 -12.613281 0.515625 -12.691406 0.859375 -12.734375 C 2.171875 -12.878906 2.878906 -12.785156 2.984375 -12.453125 L 5.390625 -4.78125 L 5.953125 -12.78125 C 5.984375 -13.132812 6.695312 -13.390625 8.09375 -13.546875 C 8.445312 -13.578125 8.882812 -13.597656 9.40625 -13.609375 C 9.9375 -13.617188 10.207031 -13.59375 10.21875 -13.53125 L 8.390625 -1.40625 C 8.359375 -1.195312 8.015625 -1.035156 7.359375 -0.921875 C 6.367188 -0.691406 5.457031 -0.5625 4.625 -0.53125 C 3.789062 -0.507812 3.335938 -0.582031 3.265625 -0.75 Z M -1.15625 -12.25 "/></g></g></g><g fill="#ffffff" fill-opacity="1"><g transform="translate(249.949364, 272.635064)"><g><path d="M 6.1875 -0.671875 C 4.519531 -0.441406 3.085938 -0.800781 1.890625 -1.75 C 0.703125 -2.695312 -0.03125 -4.210938 -0.3125 -6.296875 C -0.601562 -8.378906 -0.289062 -10.03125 0.625 -11.25 C 1.539062 -12.476562 2.832031 -13.207031 4.5 -13.4375 C 6.175781 -13.664062 7.597656 -13.320312 8.765625 -12.40625 C 9.941406 -11.488281 10.675781 -9.957031 10.96875 -7.8125 C 11.269531 -5.664062 10.960938 -3.992188 10.046875 -2.796875 C 9.140625 -1.609375 7.851562 -0.898438 6.1875 -0.671875 Z M 4.90625 -10.03125 C 4.34375 -9.957031 3.90625 -9.628906 3.59375 -9.046875 C 3.28125 -8.472656 3.1875 -7.71875 3.3125 -6.78125 C 3.445312 -5.84375 3.734375 -5.144531 4.171875 -4.6875 C 4.609375 -4.226562 5.125 -4.039062 5.71875 -4.125 C 6.320312 -4.207031 6.773438 -4.53125 7.078125 -5.09375 C 7.378906 -5.65625 7.460938 -6.40625 7.328125 -7.34375 C 7.203125 -8.289062 6.910156 -8.992188 6.453125 -9.453125 C 5.992188 -9.921875 5.476562 -10.113281 4.90625 -10.03125 Z M 4.90625 -10.03125 "/></g></g></g><g fill="#ffffff" fill-opacity="1"><g transform="translate(262.905329, 270.844465)"><g><path d="M 4.703125 -13.109375 C 4.660156 -13.347656 5.28125 -13.570312 6.5625 -13.78125 C 7.84375 -13.988281 8.503906 -13.972656 8.546875 -13.734375 L 9.859375 -5.609375 C 10.054688 -4.398438 9.785156 -3.347656 9.046875 -2.453125 C 8.316406 -1.554688 7.191406 -0.984375 5.671875 -0.734375 C 4.160156 -0.492188 2.863281 -0.6875 1.78125 -1.3125 C 0.707031 -1.9375 0.0664062 -2.914062 -0.140625 -4.25 L -1.421875 -12.09375 C -1.460938 -12.332031 -0.847656 -12.554688 0.421875 -12.765625 C 1.703125 -12.972656 2.363281 -12.957031 2.40625 -12.71875 L 3.703125 -4.75 C 3.742188 -4.507812 3.898438 -4.335938 4.171875 -4.234375 C 4.460938 -4.128906 4.75 -4.097656 5.03125 -4.140625 C 5.3125 -4.191406 5.550781 -4.300781 5.75 -4.46875 C 5.957031 -4.632812 6.039062 -4.851562 6 -5.125 Z M 4.703125 -13.109375 "/></g></g></g><g fill="#ffffff" fill-opacity="1"><g transform="translate(274.601549, 268.934611)"><g><path d="M 4.1875 -1.03125 C 4.21875 -0.84375 3.675781 -0.648438 2.5625 -0.453125 C 1.4375 -0.234375 0.859375 -0.210938 0.828125 -0.390625 L -1.296875 -11.875 C -1.378906 -12.28125 -1.203125 -12.523438 -0.765625 -12.609375 L 2.609375 -13.234375 C 5.703125 -13.816406 7.472656 -12.90625 7.921875 -10.5 C 8.054688 -9.78125 8.03125 -9.09375 7.84375 -8.4375 C 7.664062 -7.789062 7.359375 -7.238281 6.921875 -6.78125 L 9.84375 -3.515625 C 9.789062 -3.210938 9.539062 -2.828125 9.09375 -2.359375 C 8.476562 -1.722656 7.941406 -1.363281 7.484375 -1.28125 C 7.035156 -1.195312 6.664062 -1.300781 6.375 -1.59375 L 4.015625 -5.125 L 3.453125 -5.015625 Z M 2.515625 -10 L 3.015625 -7.359375 L 3.109375 -7.390625 C 4.222656 -7.585938 4.691406 -8.144531 4.515625 -9.0625 C 4.441406 -9.5 4.273438 -9.800781 4.015625 -9.96875 C 3.765625 -10.132812 3.394531 -10.171875 2.90625 -10.078125 Z M 2.515625 -10 "/></g></g></g><g fill="#ffffff" fill-opacity="1"><g transform="translate(285.547916, 266.870487)"><g><path d="M 2.9375 -4.4375 C 2.945312 -4.363281 2.53125 -4.238281 1.6875 -4.0625 C 0.851562 -3.894531 0.429688 -3.84375 0.421875 -3.90625 L -1.671875 -12.5 C -1.691406 -12.59375 -1.164062 -12.75 -0.09375 -12.96875 C 0.976562 -13.1875 1.519531 -13.253906 1.53125 -13.171875 Z M 0.265625 -2.796875 C 0.242188 -2.867188 0.773438 -3.015625 1.859375 -3.234375 C 2.941406 -3.460938 3.492188 -3.546875 3.515625 -3.484375 L 4.015625 -0.953125 C 4.046875 -0.835938 3.519531 -0.664062 2.4375 -0.4375 C 1.351562 -0.21875 0.800781 -0.140625 0.78125 -0.203125 Z M 0.265625 -2.796875 "/></g></g></g><g clip-path="url(#1112162f32)"><g clip-path="url(#5660a3ad5b)"><g clip-path="url(#05ca0a17f1)"><g clip-path="url(#cf2c9cecad)"><g clip-path="url(#57bd712d37)"><path fill="#ffffff" d="M 238.988281 169.535156 C 251.984375 140.167969 238.9375 105.335938 209.851562 91.773438 C 184.429688 79.917969 155.164062 88.199219 139.503906 110.042969 C 143.496094 105.625 149.699219 100.4375 158.355469 97.632812 C 175.335938 92.105469 184.859375 95.097656 184.859375 95.097656 C 151.292969 96.726562 128.6875 127.140625 129.039062 151.753906 C 130.515625 163.371094 135.417969 174.429688 143.132812 183.367188 C 145.554688 185.304688 148.148438 186.648438 149.800781 182.9375 L 149.820312 182.945312 C 151.109375 175.871094 153.074219 162.105469 152.058594 159.566406 C 150.730469 156.261719 144.84375 154.964844 143.949219 151.300781 C 143.066406 147.617188 150.957031 110.042969 150.957031 110.042969 C 150.957031 110.042969 152.042969 109.558594 152.636719 110.183594 C 153.210938 110.851562 147.894531 145.144531 148.457031 146.238281 C 149.019531 147.332031 149.050781 146.863281 149.546875 147.121094 C 149.972656 147.1875 150.53125 147.367188 151.300781 146.007812 C 152.078125 144.625 155.445312 111.867188 155.640625 111.394531 C 155.820312 110.890625 156.398438 109.359375 157.410156 110.074219 C 158.429688 110.765625 155.121094 144.945312 155.421875 145.96875 C 155.742188 147.003906 156.199219 147.003906 156.707031 147.1875 C 157.160156 147.074219 157.457031 147.1875 157.886719 146.261719 C 158.332031 145.367188 160.425781 111.023438 161.523438 110.515625 C 162.628906 109.984375 162.976562 111.59375 163.078125 112.125 C 163.179688 112.65625 161.394531 145.589844 161.945312 147.050781 C 162.472656 148.507812 163.015625 148.4375 163.429688 148.46875 C 164.011719 148.3125 163.992188 148.757812 164.738281 147.792969 C 165.472656 146.792969 165.554688 112.046875 166.214844 111.496094 C 166.886719 110.976562 167.90625 111.667969 167.90625 111.667969 C 167.90625 111.667969 169.742188 150.125 168.320312 153.570312 C 166.894531 157.035156 160.652344 157.589844 158.863281 160.617188 C 157.460938 162.941406 157.074219 178.839844 157.210938 187.171875 C 157.320312 188.777344 157.699219 191.074219 158.953125 192.464844 C 161.050781 194.8125 162.601562 194.246094 163.859375 191.613281 L 178.066406 161.949219 C 178.429688 160.886719 178.714844 159.8125 178.703125 158.917969 C 178.664062 157.964844 178.371094 157.101562 178.027344 156.457031 C 173.640625 152.289062 172.179688 145.464844 176.191406 136.410156 C 181.296875 124.945312 193.253906 114.199219 200.632812 117.644531 C 208.015625 121.085938 208 137.394531 202.914062 148.875 C 199.144531 157.421875 193.613281 160.882812 188.007812 160.710938 C 187.230469 160.9375 186.132812 161.339844 185.246094 162.027344 C 184.640625 162.523438 183.960938 163.574219 183.402344 164.65625 L 171.011719 194.222656 L 171.03125 194.234375 C 171.03125 194.234375 170.613281 197.554688 172.21875 198.195312 C 173.03125 198.519531 174.023438 197.773438 174.796875 196.980469 L 174.773438 196.96875 C 174.773438 196.96875 175.070312 196.625 175.617188 196.023438 C 175.902344 195.644531 176.078125 195.378906 176.078125 195.378906 L 176.132812 195.429688 C 183.101562 187.570312 214.488281 152.070312 217.285156 148.488281 C 220.449219 144.464844 228.082031 135.460938 230.332031 138.632812 C 232.582031 141.800781 227.71875 155.394531 219.246094 168.78125 C 210.757812 182.160156 203.46875 189.042969 198.378906 190.988281 C 193.273438 192.902344 190.375 188.652344 186.710938 192.3125 C 184.230469 194.804688 181.921875 197.808594 180.671875 199.507812 C 180.496094 200.175781 180.253906 201.78125 181.605469 202.679688 C 182.292969 203.160156 183.234375 203.386719 184.085938 203.515625 C 184.804688 203.527344 185.535156 203.570312 186.261719 203.5625 C 208.320312 203.835938 229.394531 191.199219 238.988281 169.535156 " fill-opacity="1" fill-rule="evenodd"/></g></g></g></g></g></svg>